<svg width="20" height="20" viewBox="0 0 20 20" fill="none" xmlns="http://www.w3.org/2000/svg">
<path d="M3.33337 10.0001C3.33337 10.2211 3.42117 10.4331 3.57745 10.5893C3.73373 10.7456 3.94569 10.8334 4.16671 10.8334C4.38772 10.8334 4.59968 10.7456 4.75596 10.5893C4.91224 10.4331 5.00004 10.2211 5.00004 10.0001C5.00004 9.77907 4.91224 9.56711 4.75596 9.41083C4.59968 9.25455 4.38772 9.16675 4.16671 9.16675C3.94569 9.16675 3.73373 9.25455 3.57745 9.41083C3.42117 9.56711 3.33337 9.77907 3.33337 10.0001Z" stroke="#64748B" stroke-width="1.5" stroke-linecap="round" stroke-linejoin="round"/>
<path d="M9.16671 10.0001C9.16671 10.2211 9.2545 10.4331 9.41079 10.5893C9.56707 10.7456 9.77903 10.8334 10 10.8334C10.2211 10.8334 10.433 10.7456 10.5893 10.5893C10.7456 10.4331 10.8334 10.2211 10.8334 10.0001C10.8334 9.77907 10.7456 9.56711 10.5893 9.41083C10.433 9.25455 10.2211 9.16675 10 9.16675C9.77903 9.16675 9.56707 9.25455 9.41079 9.41083C9.2545 9.56711 9.16671 9.77907 9.16671 10.0001Z" stroke="#64748B" stroke-width="1.5" stroke-linecap="round" stroke-linejoin="round"/>
<path d="M15 10.0001C15 10.2211 15.0878 10.4331 15.2441 10.5893C15.4004 10.7456 15.6124 10.8334 15.8334 10.8334C16.0544 10.8334 16.2663 10.7456 16.4226 10.5893C16.5789 10.4331 16.6667 10.2211 16.6667 10.0001C16.6667 9.77907 16.5789 9.56711 16.4226 9.41083C16.2663 9.25455 16.0544 9.16675 15.8334 9.16675C15.6124 9.16675 15.4004 9.25455 15.2441 9.41083C15.0878 9.56711 15 9.77907 15 10.0001Z" stroke="#64748B" stroke-width="1.5" stroke-linecap="round" stroke-linejoin="round"/>
</svg>
