<svg width="20" height="20" viewBox="0 0 20 20" fill="none" xmlns="http://www.w3.org/2000/svg">
<path d="M4.99999 14.1667C5.44202 14.1667 5.86595 14.3423 6.17851 14.6548C6.49107 14.9674 6.66666 15.3913 6.66666 15.8333C6.66666 16.2754 6.49107 16.6993 6.17851 17.0118C5.86595 17.3244 5.44202 17.5 4.99999 17.5C4.55797 17.5 4.13404 17.3244 3.82148 17.0118C3.50892 16.6993 3.33333 16.2754 3.33333 15.8333C3.33333 15.3913 3.50892 14.9674 3.82148 14.6548C4.13404 14.3423 4.55797 14.1667 4.99999 14.1667ZM4.99999 14.1667H14.1667M4.99999 14.1667V2.5H3.33333M14.1667 14.1667C14.6087 14.1667 15.0326 14.3423 15.3452 14.6548C15.6577 14.9674 15.8333 15.3913 15.8333 15.8333C15.8333 16.2754 15.6577 16.6993 15.3452 17.0118C15.0326 17.3244 14.6087 17.5 14.1667 17.5C13.7246 17.5 13.3007 17.3244 12.9882 17.0118C12.6756 16.6993 12.5 16.2754 12.5 15.8333C12.5 15.3913 12.6756 14.9674 12.9882 14.6548C13.3007 14.3423 13.7246 14.1667 14.1667 14.1667ZM4.99999 4.16667L16.6667 5L15.8333 10.8333H4.99999" stroke="#0E7490" stroke-width="1.5" stroke-linecap="round" stroke-linejoin="round"/>
</svg>
